<svg width="86" height="21" viewBox="0 0 86 21" fill="none" xmlns="http://www.w3.org/2000/svg">
<path d="M9.31334 0.972656V7.74241H2.99819V0.972656H0V17.1327H2.99819V10.5828H9.31334V17.1327H12.3115V0.972656H9.31334Z" fill="#33475B"/>
<path d="M21.9069 11.9089C21.9069 12.5566 21.6455 13.1777 21.1804 13.6356C20.7152 14.0936 20.0843 14.3508 19.4265 14.3508C18.7687 14.3508 18.1378 14.0936 17.6726 13.6356C17.2074 13.1777 16.9461 12.5566 16.9461 11.9089V4.9873H14.1022V11.9089C14.1022 13.2978 14.6626 14.6298 15.6601 15.6119C16.6577 16.5939 18.0106 17.1457 19.4214 17.1457C20.8321 17.1457 22.185 16.5939 23.1826 15.6119C24.1801 14.6298 24.7405 13.2978 24.7405 11.9089V4.9873H21.9069V11.9089Z" fill="#33475B"/>
<path d="M42.9781 5.70035C42.9781 4.28161 43.9315 3.83183 44.9759 3.83183C45.8176 3.83183 46.9297 4.46238 47.6568 5.22743L49.5195 3.06678C48.5896 1.82882 46.7034 0.972656 45.1595 0.972656C42.0747 0.972656 39.8433 2.75151 39.8433 5.70035C39.8433 11.1714 46.6359 9.43593 46.6359 12.4976C46.6359 13.442 45.7045 14.2764 44.6381 14.2764C42.9561 14.2764 42.4111 13.4665 41.6384 12.6104L39.5715 14.7262C40.8936 16.3243 42.5242 17.1356 44.4779 17.1356C47.4086 17.1356 49.7663 15.3351 49.7663 12.5207C49.7663 6.44659 42.9737 8.33391 42.9737 5.70035" fill="#33475B"/>
<path d="M84.9995 14.5512C83.319 14.5512 82.8416 13.8353 82.8416 12.7391V7.88701H85.4535V5.42844H82.8416V2.18457L79.958 3.45869V13.3421C79.958 15.8701 81.7296 17.1443 84.1593 17.1443C84.5403 17.1511 84.9212 17.1211 85.2963 17.0546L85.9999 14.5049C85.6826 14.5266 85.3183 14.5483 84.9995 14.5483" fill="#33475B"/>
<path d="M32.7319 5.06838C31.3231 5.06838 30.3404 5.47042 29.3899 6.38877V1.06958H26.5416V10.9285C26.5416 14.6192 29.2518 17.1472 32.297 17.1472C35.6757 17.1472 38.6474 14.5744 38.6474 11.1092C38.6474 7.68748 35.9122 5.06982 32.7319 5.06982V5.06838ZM32.7142 14.3256C32.075 14.3256 31.4502 14.139 30.9188 13.7894C30.3873 13.4398 29.9731 12.9429 29.7285 12.3615C29.4839 11.7801 29.4199 11.1404 29.5446 10.5232C29.6693 9.90604 29.9771 9.33912 30.429 8.89415C30.881 8.44919 31.4568 8.14616 32.0837 8.02339C32.7106 7.90063 33.3604 7.96364 33.951 8.20445C34.5415 8.44526 35.0462 8.85307 35.4013 9.37629C35.7564 9.89952 35.946 10.5147 35.946 11.1439C35.946 11.9878 35.6055 12.797 34.9994 13.3937C34.3933 13.9904 33.5713 14.3256 32.7142 14.3256Z" fill="#33475B"/>
<path d="M63.6596 10.9618C63.6596 7.49086 60.6938 4.92383 57.3092 4.92383C54.264 4.92383 51.5538 7.45182 51.5538 11.1426V21.0072H54.4021V15.6808C55.3511 16.5977 56.3353 17.0012 57.7426 17.0012C60.9229 17.0012 63.6582 14.385 63.6582 10.9618H63.6596ZM60.9626 10.9271C60.9626 11.5564 60.773 12.1715 60.4179 12.6947C60.0628 13.2179 59.5581 13.6258 58.9676 13.8666C58.377 14.1074 57.7272 14.1704 57.1003 14.0476C56.4734 13.9249 55.8976 13.6218 55.4456 13.1769C54.9937 12.7319 54.6859 12.165 54.5612 11.5478C54.4365 10.9306 54.5005 10.2909 54.7451 9.7095C54.9897 9.12813 55.4039 8.63122 55.9354 8.28161C56.4668 7.932 57.0916 7.7454 57.7308 7.7454C58.5879 7.7454 59.4099 8.08061 60.016 8.67729C60.6221 9.27397 60.9626 10.0832 60.9626 10.9271Z" fill="#33475B"/>
</svg>
