<svg width="89" height="18" viewBox="0 0 89 18" fill="none" xmlns="http://www.w3.org/2000/svg">
<path d="M10.0636 10.9753L9.33641 13.0311H9.27581C9.15462 12.5675 8.93244 11.8621 8.56886 11.0156L4.67051 1.24042H0.852966V16.8203H3.3778V7.20631C3.3778 6.60166 3.3778 5.91639 3.3576 5.06987C3.3374 4.64662 3.29701 4.32414 3.27681 4.08228H3.3374C3.45859 4.68693 3.59998 5.13034 3.70098 5.41251L8.38707 16.78H10.1646L14.8102 5.31173C14.9112 5.04972 15.0122 4.52569 15.1132 4.08228H15.1738C15.1132 5.23111 15.0728 6.25902 15.0526 6.88383V16.7598H17.7391V1.20011H14.0629L10.0636 10.9753ZM20.2841 5.5939H22.9099V16.7598H20.2841V5.5939ZM21.6172 0.877626C21.1728 0.877626 20.8093 1.03887 20.5063 1.32104C20.2033 1.60321 20.0417 1.966 20.0417 2.40941C20.0417 2.83266 20.2033 3.19546 20.5063 3.47763C20.8093 3.7598 21.1728 3.90088 21.6172 3.90088C22.0616 3.90088 22.4453 3.73964 22.7281 3.47763C23.0311 3.19546 23.1927 2.83266 23.1927 2.40941C23.1927 1.98615 23.0311 1.62336 22.7281 1.32104C22.4655 1.03887 22.0818 0.877626 21.6172 0.877626ZM32.2215 5.49313C31.7367 5.39235 31.2318 5.33189 30.747 5.33189C29.5553 5.33189 28.4645 5.59391 27.5556 6.11794C26.6467 6.64197 25.9195 7.36755 25.4549 8.27453C24.9702 9.20166 24.7278 10.2699 24.7278 11.4993C24.7278 12.5675 24.9702 13.5148 25.4347 14.3815C25.8993 15.228 26.5457 15.9133 27.4142 16.3769C28.2424 16.8404 29.2119 17.0823 30.3026 17.0823C31.5549 17.0823 32.6255 16.8203 33.4738 16.3365L33.494 16.3164V13.8978L33.393 13.9784C33.0093 14.2606 32.5649 14.5024 32.1205 14.6435C31.6559 14.8048 31.2318 14.8854 30.8682 14.8854C29.8179 14.8854 28.9897 14.5831 28.404 13.9179C27.798 13.273 27.495 12.3862 27.495 11.2776C27.495 10.1288 27.798 9.22181 28.4242 8.5567C29.0503 7.89158 29.8785 7.54894 30.8884 7.54894C31.7367 7.54894 32.6053 7.83112 33.393 8.39546L33.494 8.47608V5.91639L33.4738 5.89623C33.1304 5.75515 32.7467 5.5939 32.2215 5.49313ZM40.8867 5.41251C40.2404 5.41251 39.6344 5.61406 39.1093 6.03732C38.6649 6.40011 38.3619 6.92414 38.0993 7.54894H38.0791V5.5939H35.4533V16.7598H38.0791V11.0559C38.0791 10.0885 38.2811 9.28228 38.7255 8.69778C39.1698 8.09313 39.7354 7.7908 40.4222 7.7908C40.6646 7.7908 40.9069 7.85127 41.2099 7.89158C41.4927 7.9722 41.6947 8.05282 41.8361 8.15359L41.9371 8.23421V5.61406L41.8765 5.5939C41.6947 5.47297 41.3311 5.41251 40.8867 5.41251ZM48.0371 5.35205C46.199 5.35205 44.7245 5.89623 43.6944 6.96445C42.644 8.03267 42.1391 9.50398 42.1391 11.3582C42.1391 13.0916 42.6642 14.5024 43.6742 15.5303C44.6841 16.5381 46.0576 17.0621 47.7745 17.0621C49.5722 17.0621 51.0063 16.5179 52.0364 15.4296C53.0867 14.3412 53.5917 12.89 53.5917 11.0962C53.5917 9.32259 53.1069 7.91174 52.1172 6.88383C51.1679 5.85592 49.7742 5.35205 48.0371 5.35205ZM50.1377 13.9381C49.653 14.5629 48.8854 14.8652 47.9361 14.8652C46.9867 14.8652 46.2192 14.5629 45.6738 13.8978C45.1285 13.273 44.8659 12.366 44.8659 11.2172C44.8659 10.028 45.1487 9.12104 45.6738 8.47608C46.2192 7.83112 46.9665 7.50863 47.9159 7.50863C48.845 7.50863 49.5722 7.81096 50.0973 8.43577C50.6225 9.06057 50.9053 9.96755 50.9053 11.1567C50.8649 12.366 50.6427 13.3133 50.1377 13.9381ZM59.4493 10.2296C58.6212 9.88693 58.096 9.62491 57.8536 9.40321C57.6516 9.20166 57.5506 8.91949 57.5506 8.5567C57.5506 8.25437 57.6718 7.95204 57.9748 7.75049C58.2778 7.54894 58.6212 7.44817 59.1261 7.44817C59.5705 7.44817 60.0351 7.52879 60.4794 7.64972C60.9238 7.77065 61.3278 7.95205 61.651 8.19391L61.752 8.27453V5.81561L61.6914 5.79546C61.3884 5.67453 60.9844 5.5536 60.4996 5.45282C60.0149 5.3722 59.5705 5.33189 59.2069 5.33189C57.9546 5.33189 56.9245 5.63421 56.1165 6.29933C55.3086 6.92414 54.9248 7.77065 54.9248 8.75825C54.9248 9.28228 55.0056 9.74584 55.1874 10.1288C55.3692 10.5117 55.6318 10.8745 55.9953 11.1769C56.3589 11.459 56.8841 11.7815 57.6112 12.0838C58.2172 12.3458 58.6818 12.5474 58.9645 12.7086C59.2473 12.8699 59.4291 13.0513 59.5705 13.1924C59.6715 13.3536 59.7321 13.5551 59.7321 13.8172C59.7321 14.5629 59.1665 14.9257 58.0152 14.9257C57.5708 14.9257 57.1063 14.8451 56.5609 14.6637C56.0155 14.4823 55.5106 14.2203 55.0864 13.9179L54.9854 13.8373V16.397L55.046 16.4172C55.4298 16.5986 55.8943 16.7195 56.4599 16.8606C57.0255 16.9613 57.5304 17.042 57.9748 17.042C59.3281 17.042 60.439 16.7396 61.2268 16.0745C62.0347 15.4296 62.4589 14.6032 62.4589 13.535C62.4589 12.7893 62.2569 12.1241 61.8126 11.6203C61.2268 11.1365 60.4996 10.6327 59.4493 10.2296ZM69.3871 5.35205C67.549 5.35205 66.0745 5.89623 65.0443 6.96445C64.0142 8.03267 63.4891 9.50398 63.4891 11.3582C63.4891 13.0916 64.0142 14.5024 65.0241 15.5303C66.0341 16.5381 67.4076 17.0621 69.1245 17.0621C70.9222 17.0621 72.3563 16.5179 73.3864 15.4296C74.4367 14.3412 74.9417 12.89 74.9417 11.0962C74.9417 9.32259 74.4569 7.91174 73.4672 6.88383C72.5179 5.85592 71.1241 5.35205 69.3871 5.35205ZM71.4675 13.9381C70.9828 14.5629 70.2152 14.8652 69.2659 14.8652C68.2963 14.8652 67.549 14.5629 67.0036 13.8978C66.4583 13.273 66.1957 12.366 66.1957 11.2172C66.1957 10.028 66.4785 9.12104 67.0036 8.47608C67.549 7.83112 68.2963 7.50863 69.2457 7.50863C70.1546 7.50863 70.902 7.81096 71.4271 8.43577C71.9523 9.06057 72.2351 9.96755 72.2351 11.1567C72.2351 12.366 71.9725 13.3133 71.4675 13.9381ZM88.9798 7.75049V5.5939H86.3337V2.28848L86.253 2.30863L83.7483 3.05437L83.6877 3.07453V5.5939H79.7288V4.18305C79.7288 3.53809 79.8904 3.03422 80.1731 2.71173C80.4559 2.38925 80.8801 2.22801 81.4053 2.22801C81.7689 2.22801 82.1526 2.30863 82.5768 2.49003L82.6778 2.55049V0.272975L82.6172 0.25282C82.2536 0.13189 81.7688 0.0512695 81.1427 0.0512695C80.3549 0.0512695 79.6682 0.232665 79.042 0.53499C78.4159 0.877626 77.9513 1.34119 77.6079 1.966C77.2645 2.57065 77.0828 3.25592 77.0828 4.04197V5.5939H75.2447V7.73034H77.0828V16.7598H79.7288V7.75049H83.6877V13.4947C83.6877 15.8528 84.7987 17.042 87.0205 17.042C87.3841 17.042 87.7679 16.9815 88.1314 16.921C88.5152 16.8404 88.798 16.7396 88.9596 16.659L88.9798 16.6389V14.4823L88.8788 14.5629C88.7172 14.6637 88.5758 14.7443 88.3334 14.8048C88.1314 14.8652 87.9496 14.8854 87.8083 14.8854C87.2831 14.8854 86.9195 14.7644 86.6569 14.4621C86.4146 14.18 86.2934 13.7164 86.2934 13.0311V7.75049H88.9798Z" fill="#737373"/>
</svg>
